<mxfile host="app.diagrams.net" modified="2022-09-16T20:16:05.070Z" agent="5.0 (X11; Linux x86_64) AppleWebKit/537.36 (KHTML, like Gecko) Chrome/105.0.0.0 Safari/537.36" etag="KaPE_-_g03H9w2Vjye5t" version="16.0.2" type="github">
  <diagram id="JVJfLPUdnq0BfHzzFtox" name="Page-1">
    <mxGraphModel dx="2062" dy="1900" grid="1" gridSize="10" guides="1" tooltips="1" connect="1" arrows="1" fold="1" page="1" pageScale="1" pageWidth="850" pageHeight="1100" math="0" shadow="0">
      <root>
        <mxCell id="0" />
        <mxCell id="1" parent="0" />
        <mxCell id="7g7lIFM-TJJ36w5Snd10-37" style="edgeStyle=orthogonalEdgeStyle;rounded=0;orthogonalLoop=1;jettySize=auto;html=1;exitX=1;exitY=0.5;exitDx=0;exitDy=0;" edge="1" parent="1" source="7g7lIFM-TJJ36w5Snd10-38" target="7g7lIFM-TJJ36w5Snd10-43">
          <mxGeometry relative="1" as="geometry" />
        </mxCell>
        <mxCell id="7g7lIFM-TJJ36w5Snd10-38" value="Rabbit" style="rounded=0;whiteSpace=wrap;html=1;" vertex="1" parent="1">
          <mxGeometry y="40" width="120" height="60" as="geometry" />
        </mxCell>
        <mxCell id="7g7lIFM-TJJ36w5Snd10-73" style="edgeStyle=orthogonalEdgeStyle;rounded=0;orthogonalLoop=1;jettySize=auto;html=1;entryX=0.5;entryY=1;entryDx=0;entryDy=0;entryPerimeter=0;" edge="1" parent="1" source="7g7lIFM-TJJ36w5Snd10-40" target="7g7lIFM-TJJ36w5Snd10-56">
          <mxGeometry relative="1" as="geometry" />
        </mxCell>
        <mxCell id="7g7lIFM-TJJ36w5Snd10-74" style="edgeStyle=orthogonalEdgeStyle;rounded=0;orthogonalLoop=1;jettySize=auto;html=1;" edge="1" parent="1" source="7g7lIFM-TJJ36w5Snd10-40" target="7g7lIFM-TJJ36w5Snd10-64">
          <mxGeometry relative="1" as="geometry" />
        </mxCell>
        <mxCell id="7g7lIFM-TJJ36w5Snd10-76" style="edgeStyle=orthogonalEdgeStyle;rounded=0;orthogonalLoop=1;jettySize=auto;html=1;entryX=0.5;entryY=0;entryDx=0;entryDy=0;entryPerimeter=0;" edge="1" parent="1" source="7g7lIFM-TJJ36w5Snd10-40" target="7g7lIFM-TJJ36w5Snd10-70">
          <mxGeometry relative="1" as="geometry" />
        </mxCell>
        <mxCell id="7g7lIFM-TJJ36w5Snd10-40" value="SERVICE 3&lt;br&gt;" style="ellipse;whiteSpace=wrap;html=1;aspect=fixed;" vertex="1" parent="1">
          <mxGeometry x="1150" y="400" width="80" height="80" as="geometry" />
        </mxCell>
        <mxCell id="7g7lIFM-TJJ36w5Snd10-41" style="edgeStyle=orthogonalEdgeStyle;rounded=0;orthogonalLoop=1;jettySize=auto;html=1;exitX=1;exitY=0.5;exitDx=0;exitDy=0;" edge="1" parent="1" source="7g7lIFM-TJJ36w5Snd10-43" target="7g7lIFM-TJJ36w5Snd10-44">
          <mxGeometry relative="1" as="geometry" />
        </mxCell>
        <mxCell id="7g7lIFM-TJJ36w5Snd10-42" style="edgeStyle=orthogonalEdgeStyle;rounded=0;orthogonalLoop=1;jettySize=auto;html=1;exitX=0.5;exitY=1;exitDx=0;exitDy=0;" edge="1" parent="1" source="7g7lIFM-TJJ36w5Snd10-43" target="7g7lIFM-TJJ36w5Snd10-46">
          <mxGeometry relative="1" as="geometry" />
        </mxCell>
        <mxCell id="7g7lIFM-TJJ36w5Snd10-43" value="SERVICE-1" style="ellipse;whiteSpace=wrap;html=1;aspect=fixed;" vertex="1" parent="1">
          <mxGeometry x="240" y="30" width="80" height="80" as="geometry" />
        </mxCell>
        <mxCell id="7g7lIFM-TJJ36w5Snd10-44" value="FONTES PUBLICAS" style="ellipse;shape=cloud;whiteSpace=wrap;html=1;" vertex="1" parent="1">
          <mxGeometry x="320" y="-80" width="180" height="80" as="geometry" />
        </mxCell>
        <mxCell id="7g7lIFM-TJJ36w5Snd10-45" style="edgeStyle=orthogonalEdgeStyle;rounded=0;orthogonalLoop=1;jettySize=auto;html=1;entryX=0;entryY=0.5;entryDx=0;entryDy=0;fontSize=19;" edge="1" parent="1" source="7g7lIFM-TJJ36w5Snd10-46" target="7g7lIFM-TJJ36w5Snd10-52">
          <mxGeometry relative="1" as="geometry" />
        </mxCell>
        <mxCell id="7g7lIFM-TJJ36w5Snd10-46" value="Dados&lt;br&gt;pÃºblicos" style="shape=cylinder3;whiteSpace=wrap;html=1;boundedLbl=1;backgroundOutline=1;size=15;" vertex="1" parent="1">
          <mxGeometry x="250" y="230" width="60" height="80" as="geometry" />
        </mxCell>
        <mxCell id="7g7lIFM-TJJ36w5Snd10-47" value="WRITING" style="text;html=1;align=center;verticalAlign=middle;resizable=0;points=[];autosize=1;strokeColor=none;fillColor=none;rotation=90;" vertex="1" parent="1">
          <mxGeometry x="260" y="160" width="70" height="20" as="geometry" />
        </mxCell>
        <mxCell id="7g7lIFM-TJJ36w5Snd10-48" style="edgeStyle=orthogonalEdgeStyle;rounded=0;orthogonalLoop=1;jettySize=auto;html=1;fontSize=19;" edge="1" parent="1" source="7g7lIFM-TJJ36w5Snd10-49" target="7g7lIFM-TJJ36w5Snd10-52">
          <mxGeometry relative="1" as="geometry" />
        </mxCell>
        <mxCell id="7g7lIFM-TJJ36w5Snd10-49" value="&lt;font style=&quot;font-size: 19px&quot;&gt;wallet&lt;/font&gt;" style="shape=cylinder3;whiteSpace=wrap;html=1;boundedLbl=1;backgroundOutline=1;size=15;" vertex="1" parent="1">
          <mxGeometry x="580" y="-30" width="110" height="130" as="geometry" />
        </mxCell>
        <mxCell id="7g7lIFM-TJJ36w5Snd10-50" style="edgeStyle=orthogonalEdgeStyle;rounded=0;orthogonalLoop=1;jettySize=auto;html=1;fontSize=19;" edge="1" parent="1" source="7g7lIFM-TJJ36w5Snd10-52" target="7g7lIFM-TJJ36w5Snd10-54">
          <mxGeometry relative="1" as="geometry" />
        </mxCell>
        <mxCell id="7g7lIFM-TJJ36w5Snd10-85" style="edgeStyle=orthogonalEdgeStyle;rounded=0;orthogonalLoop=1;jettySize=auto;html=1;entryX=0;entryY=0.75;entryDx=0;entryDy=0;" edge="1" parent="1" source="7g7lIFM-TJJ36w5Snd10-52" target="7g7lIFM-TJJ36w5Snd10-86">
          <mxGeometry relative="1" as="geometry">
            <mxPoint x="530" y="440" as="targetPoint" />
          </mxGeometry>
        </mxCell>
        <mxCell id="7g7lIFM-TJJ36w5Snd10-52" value="SERVICE 2" style="ellipse;whiteSpace=wrap;html=1;aspect=fixed;fontSize=19;" vertex="1" parent="1">
          <mxGeometry x="450" y="190" width="160" height="160" as="geometry" />
        </mxCell>
        <mxCell id="7g7lIFM-TJJ36w5Snd10-53" style="edgeStyle=orthogonalEdgeStyle;rounded=0;orthogonalLoop=1;jettySize=auto;html=1;fontSize=19;" edge="1" parent="1" source="7g7lIFM-TJJ36w5Snd10-54" target="7g7lIFM-TJJ36w5Snd10-56">
          <mxGeometry relative="1" as="geometry" />
        </mxCell>
        <mxCell id="7g7lIFM-TJJ36w5Snd10-54" value="JOIN W + DP" style="shape=process;whiteSpace=wrap;html=1;backgroundOutline=1;fontSize=19;" vertex="1" parent="1">
          <mxGeometry x="770" y="240" width="120" height="60" as="geometry" />
        </mxCell>
        <mxCell id="7g7lIFM-TJJ36w5Snd10-56" value="GN" style="shape=cylinder3;whiteSpace=wrap;html=1;boundedLbl=1;backgroundOutline=1;size=15;fontSize=19;" vertex="1" parent="1">
          <mxGeometry x="1160" y="230" width="60" height="80" as="geometry" />
        </mxCell>
        <mxCell id="7g7lIFM-TJJ36w5Snd10-57" value="GROSS NOTIFY" style="text;html=1;align=center;verticalAlign=middle;resizable=0;points=[];autosize=1;strokeColor=none;fillColor=none;fontSize=19;" vertex="1" parent="1">
          <mxGeometry x="920" y="240" width="160" height="30" as="geometry" />
        </mxCell>
        <mxCell id="7g7lIFM-TJJ36w5Snd10-79" value="" style="edgeStyle=orthogonalEdgeStyle;rounded=0;orthogonalLoop=1;jettySize=auto;html=1;" edge="1" parent="1" source="7g7lIFM-TJJ36w5Snd10-64" target="7g7lIFM-TJJ36w5Snd10-77">
          <mxGeometry relative="1" as="geometry" />
        </mxCell>
        <mxCell id="7g7lIFM-TJJ36w5Snd10-64" value="LN" style="shape=cylinder3;whiteSpace=wrap;html=1;boundedLbl=1;backgroundOutline=1;size=15;fontSize=19;" vertex="1" parent="1">
          <mxGeometry x="960" y="320" width="60" height="80" as="geometry" />
        </mxCell>
        <mxCell id="7g7lIFM-TJJ36w5Snd10-67" value="FB" style="shape=cylinder3;whiteSpace=wrap;html=1;boundedLbl=1;backgroundOutline=1;size=15;fontSize=19;" vertex="1" parent="1">
          <mxGeometry x="330" y="510" width="60" height="80" as="geometry" />
        </mxCell>
        <mxCell id="7g7lIFM-TJJ36w5Snd10-78" style="edgeStyle=orthogonalEdgeStyle;rounded=0;orthogonalLoop=1;jettySize=auto;html=1;entryX=1;entryY=0.5;entryDx=0;entryDy=0;" edge="1" parent="1" source="7g7lIFM-TJJ36w5Snd10-70" target="7g7lIFM-TJJ36w5Snd10-77">
          <mxGeometry relative="1" as="geometry" />
        </mxCell>
        <mxCell id="7g7lIFM-TJJ36w5Snd10-70" value="DEVICES" style="shape=cylinder3;whiteSpace=wrap;html=1;boundedLbl=1;backgroundOutline=1;size=15;fontSize=19;" vertex="1" parent="1">
          <mxGeometry x="1160" y="560" width="60" height="100" as="geometry" />
        </mxCell>
        <mxCell id="7g7lIFM-TJJ36w5Snd10-83" style="edgeStyle=orthogonalEdgeStyle;rounded=0;orthogonalLoop=1;jettySize=auto;html=1;entryX=1;entryY=0.5;entryDx=0;entryDy=0;entryPerimeter=0;" edge="1" parent="1" source="7g7lIFM-TJJ36w5Snd10-72" target="7g7lIFM-TJJ36w5Snd10-67">
          <mxGeometry relative="1" as="geometry" />
        </mxCell>
        <mxCell id="7g7lIFM-TJJ36w5Snd10-72" value="SERVICE-4" style="ellipse;whiteSpace=wrap;html=1;aspect=fixed;" vertex="1" parent="1">
          <mxGeometry x="470" y="580" width="80" height="80" as="geometry" />
        </mxCell>
        <mxCell id="7g7lIFM-TJJ36w5Snd10-82" style="edgeStyle=orthogonalEdgeStyle;rounded=0;orthogonalLoop=1;jettySize=auto;html=1;" edge="1" parent="1" source="7g7lIFM-TJJ36w5Snd10-75" target="7g7lIFM-TJJ36w5Snd10-72">
          <mxGeometry relative="1" as="geometry" />
        </mxCell>
        <mxCell id="7g7lIFM-TJJ36w5Snd10-75" value="Rabbit" style="rounded=0;whiteSpace=wrap;html=1;" vertex="1" parent="1">
          <mxGeometry x="670" y="590" width="120" height="60" as="geometry" />
        </mxCell>
        <mxCell id="7g7lIFM-TJJ36w5Snd10-81" style="edgeStyle=orthogonalEdgeStyle;rounded=0;orthogonalLoop=1;jettySize=auto;html=1;entryX=1;entryY=0.5;entryDx=0;entryDy=0;" edge="1" parent="1" source="7g7lIFM-TJJ36w5Snd10-77" target="7g7lIFM-TJJ36w5Snd10-75">
          <mxGeometry relative="1" as="geometry" />
        </mxCell>
        <mxCell id="7g7lIFM-TJJ36w5Snd10-77" value="JOIN devices" style="shape=process;whiteSpace=wrap;html=1;backgroundOutline=1;fontSize=19;" vertex="1" parent="1">
          <mxGeometry x="930" y="520" width="120" height="60" as="geometry" />
        </mxCell>
        <mxCell id="7g7lIFM-TJJ36w5Snd10-87" style="edgeStyle=orthogonalEdgeStyle;rounded=0;orthogonalLoop=1;jettySize=auto;html=1;" edge="1" parent="1" source="7g7lIFM-TJJ36w5Snd10-86" target="7g7lIFM-TJJ36w5Snd10-40">
          <mxGeometry relative="1" as="geometry">
            <Array as="points">
              <mxPoint x="640" y="360" />
              <mxPoint x="910" y="360" />
              <mxPoint x="910" y="440" />
            </Array>
          </mxGeometry>
        </mxCell>
        <mxCell id="7g7lIFM-TJJ36w5Snd10-86" value="Rabbit" style="rounded=0;whiteSpace=wrap;html=1;" vertex="1" parent="1">
          <mxGeometry x="560" y="420" width="120" height="60" as="geometry" />
        </mxCell>
      </root>
    </mxGraphModel>
  </diagram>
</mxfile>
